<?xml version="1.0" encoding="UTF-8"?>
<!DOCTYPE svg PUBLIC "-//W3C//DTD SVG 1.1//EN" "http://www.w3.org/Graphics/SVG/1.1/DTD/svg11.dtd">
<svg xmlns="http://www.w3.org/2000/svg" version="1.1" width="192px" height="192px" style="shape-rendering:geometricPrecision; text-rendering:geometricPrecision; image-rendering:optimizeQuality; fill-rule:evenodd; clip-rule:evenodd" xmlns:xlink="http://www.w3.org/1999/xlink">
<g><path style="opacity:0.962" fill="#58c0fe" d="M 80.5,-0.5 C 90.5,-0.5 100.5,-0.5 110.5,-0.5C 154.496,9.49612 181.496,36.4961 191.5,80.5C 191.5,84.5 191.5,88.5 191.5,92.5C 181.167,82.5 170.833,72.5 160.5,62.5C 157.694,58.8627 154.361,55.6961 150.5,53C 148.35,51.5886 146.016,50.7553 143.5,50.5C 142.737,49.7321 141.737,49.2321 140.5,49C 133.833,48.3333 127.167,48.3333 120.5,49C 116.528,50.3194 112.861,52.1528 109.5,54.5C 104.203,48.7019 98.7029,43.0353 93,37.5C 92.6174,38.056 92.1174,38.3893 91.5,38.5C 91.5858,37.5041 91.2524,36.6708 90.5,36C 63.535,25.7698 41.7017,32.2698 25,55.5C 19.8233,66.2563 18.1566,77.5896 20,89.5C 20.747,94.8431 22.247,99.8431 24.5,104.5C 27.8755,114.195 33.5422,122.195 41.5,128.5C 51.5828,139.084 61.9161,149.584 72.5,160C 72.2716,160.399 71.9382,160.565 71.5,160.5C 59.948,159.371 49.6147,155.205 40.5,148C 35.9617,143.683 31.7951,139.183 28,134.5C 27.5,134.667 27,134.833 26.5,135C 31.0841,145.085 37.4174,153.918 45.5,161.5C 55.145,170.146 64.145,179.48 72.5,189.5C 32.521,177.525 8.18771,151.191 -0.5,110.5C -0.5,100.5 -0.5,90.5 -0.5,80.5C 9.49799,36.502 36.498,9.50201 80.5,-0.5 Z"/></g>
<g><path style="opacity:1" fill="#e9eaeb" d="M 91.5,38.5 C 90.6011,41.0279 89.6011,43.5279 88.5,46C 82.3731,45.4352 76.2064,44.6018 70,43.5C 45.2717,45.5548 33.2717,58.8881 34,83.5C 34.521,87.6065 35.3543,91.6065 36.5,95.5C 32.8691,98.6293 29.3691,101.963 26,105.5C 25.6667,104.833 25.3333,104.167 25,103.5C 24.6012,103.728 24.4346,104.062 24.5,104.5C 22.247,99.8431 20.747,94.8431 20,89.5C 18.1566,77.5896 19.8233,66.2563 25,55.5C 41.7017,32.2698 63.535,25.7698 90.5,36C 91.2524,36.6708 91.5858,37.5041 91.5,38.5 Z"/></g>
<g><path style="opacity:1" fill="#4ca4d8" d="M 109.5,54.5 C 100.275,62.2912 95.9421,72.2912 96.5,84.5C 96.3164,89.1071 96.983,93.4405 98.5,97.5C 98.6294,100.766 99.6294,103.766 101.5,106.5C 95.1701,116.171 86.1701,121.504 74.5,122.5C 54.9072,123.362 42.2406,114.362 36.5,95.5C 35.3543,91.6065 34.521,87.6065 34,83.5C 33.2717,58.8881 45.2717,45.5548 70,43.5C 76.2064,44.6018 82.3731,45.4352 88.5,46C 89.6011,43.5279 90.6011,41.0279 91.5,38.5C 92.1174,38.3893 92.6174,38.056 93,37.5C 98.7029,43.0353 104.203,48.7019 109.5,54.5 Z"/></g>
<g><path style="opacity:1" fill="#eef0f1" d="M 143.5,50.5 C 142.262,50.81 142.262,51.31 143.5,52C 140.907,54.4853 138.24,56.652 135.5,58.5C 122.807,56.9286 114.64,62.2619 111,74.5C 110.501,79.8229 110.334,85.1563 110.5,90.5C 109.676,86.6877 109.176,82.6877 109,78.5C 108.821,81.5535 108.321,84.5535 107.5,87.5C 104.034,90.4468 101.034,93.7801 98.5,97.5C 96.983,93.4405 96.3164,89.1071 96.5,84.5C 95.9421,72.2912 100.275,62.2912 109.5,54.5C 112.861,52.1528 116.528,50.3194 120.5,49C 127.167,48.3333 133.833,48.3333 140.5,49C 141.737,49.2321 142.737,49.7321 143.5,50.5 Z"/></g>
<g><path style="opacity:1" fill="#f2f4f5" d="M 143.5,50.5 C 146.016,50.7553 148.35,51.5886 150.5,53C 154.361,55.6961 157.694,58.8627 160.5,62.5C 167.804,78.9617 166.971,94.9617 158,110.5C 148.382,120.834 136.548,124.668 122.5,122C 118.111,120.971 114.111,119.138 110.5,116.5C 98.6418,129.129 83.9752,135.795 66.5,136.5C 61.8008,136.573 57.4674,135.573 53.5,133.5C 56.2933,133.254 59.2933,133.087 62.5,133C 64.9387,130.14 67.6054,127.473 70.5,125C 68.1667,124.667 65.8333,124.333 63.5,124C 67.3563,123.823 71.023,123.323 74.5,122.5C 86.1701,121.504 95.1701,116.171 101.5,106.5C 99.6294,103.766 98.6294,100.766 98.5,97.5C 101.034,93.7801 104.034,90.4468 107.5,87.5C 108.321,84.5535 108.821,81.5535 109,78.5C 109.176,82.6877 109.676,86.6877 110.5,90.5C 112.366,107.533 121.7,114.366 138.5,111C 146.267,107.309 150.433,101.142 151,92.5C 151.788,85.4436 151.455,78.4436 150,71.5C 147.512,64.5101 142.679,60.1768 135.5,58.5C 138.24,56.652 140.907,54.4853 143.5,52C 142.262,51.31 142.262,50.81 143.5,50.5 Z"/></g>
<g><path style="opacity:1" fill="#4ca3d8" d="M 135.5,58.5 C 142.679,60.1768 147.512,64.5101 150,71.5C 151.455,78.4436 151.788,85.4436 151,92.5C 150.433,101.142 146.267,107.309 138.5,111C 121.7,114.366 112.366,107.533 110.5,90.5C 110.334,85.1563 110.501,79.8229 111,74.5C 114.64,62.2619 122.807,56.9286 135.5,58.5 Z"/></g>
<g><path style="opacity:0.978" fill="#4ca3d8" d="M 160.5,62.5 C 170.833,72.5 181.167,82.5 191.5,92.5C 191.5,98.5 191.5,104.5 191.5,110.5C 181.5,154.5 154.5,181.5 110.5,191.5C 100.5,191.5 90.5,191.5 80.5,191.5C 78.0392,190.469 75.3725,189.802 72.5,189.5C 64.145,179.48 55.145,170.146 45.5,161.5C 52.1569,165.831 59.1569,169.664 66.5,173C 71.6381,175.118 76.9714,176.285 82.5,176.5C 112.045,179.48 135.879,169.147 154,145.5C 155.636,142.394 157.136,139.227 158.5,136C 158.167,135.5 157.833,135 157.5,134.5C 141.935,152.945 121.935,162.278 97.5,162.5C 90.825,162.666 84.1583,162.5 77.5,162C 75.2922,161.809 73.2922,161.309 71.5,160.5C 71.9382,160.565 72.2716,160.399 72.5,160C 61.9161,149.584 51.5828,139.084 41.5,128.5C 45.251,130.707 49.251,132.374 53.5,133.5C 57.4674,135.573 61.8008,136.573 66.5,136.5C 83.9752,135.795 98.6418,129.129 110.5,116.5C 114.111,119.138 118.111,120.971 122.5,122C 136.548,124.668 148.382,120.834 158,110.5C 166.971,94.9617 167.804,78.9617 160.5,62.5 Z"/></g>
<g><path style="opacity:1" fill="#edeff0" d="M 36.5,95.5 C 42.2406,114.362 54.9072,123.362 74.5,122.5C 71.023,123.323 67.3563,123.823 63.5,124C 65.8333,124.333 68.1667,124.667 70.5,125C 67.6054,127.473 64.9387,130.14 62.5,133C 59.2933,133.087 56.2933,133.254 53.5,133.5C 49.251,132.374 45.251,130.707 41.5,128.5C 33.5422,122.195 27.8755,114.195 24.5,104.5C 24.4346,104.062 24.6012,103.728 25,103.5C 25.3333,104.167 25.6667,104.833 26,105.5C 29.3691,101.963 32.8691,98.6293 36.5,95.5 Z"/></g>
<g><path style="opacity:1" fill="#f6f8f9" d="M 82.5,176.5 C 88.0784,172.593 93.0784,167.926 97.5,162.5C 121.935,162.278 141.935,152.945 157.5,134.5C 157.833,135 158.167,135.5 158.5,136C 157.136,139.227 155.636,142.394 154,145.5C 135.879,169.147 112.045,179.48 82.5,176.5 Z"/></g>
<g><path style="opacity:1" fill="#f3f4f6" d="M 71.5,160.5 C 73.2922,161.309 75.2922,161.809 77.5,162C 84.1583,162.5 90.825,162.666 97.5,162.5C 93.0784,167.926 88.0784,172.593 82.5,176.5C 76.9714,176.285 71.6381,175.118 66.5,173C 59.1569,169.664 52.1569,165.831 45.5,161.5C 37.4174,153.918 31.0841,145.085 26.5,135C 27,134.833 27.5,134.667 28,134.5C 31.7951,139.183 35.9617,143.683 40.5,148C 49.6147,155.205 59.948,159.371 71.5,160.5 Z"/></g>
</svg>
